<svg width="86" height="96" viewBox="0 0 86 96" fill="none" xmlns="http://www.w3.org/2000/svg">
  <g clip-path="url(#clip0_134_848)">
    <path
      d="M84.2233 71.9998C84.8926 70.8404 85.3086 69.534 85.3086 68.3608V27.6388C85.3086 26.4657 84.8932 25.1596 84.2235 24.0001L42.6543 48L84.2233 71.9998Z"
      fill="#00599C" />
    <path
      d="M46.3482 95.1199L81.6146 74.759C82.6305 74.1724 83.5539 73.1596 84.2232 71.9999L42.6543 48L1.08533 72.0001C1.75469 73.1596 2.67831 74.1727 3.69393 74.759L38.9604 95.1199C40.9919 96.293 44.3167 96.293 46.3482 95.1199Z"
      fill="#004482" />
    <path
      d="M84.2235 23.9999C83.5539 22.8401 82.6302 21.8273 81.6146 21.2407L46.3482 0.879849C44.3167 -0.293283 40.9919 -0.293283 38.9604 0.879849L3.69392 21.2407C1.66212 22.4136 0 25.2929 0 27.6389V68.3609C0 69.534 0.41567 70.8404 1.08531 71.9999L42.6543 48L84.2235 23.9999Z"
      fill="#659AD2" />
    <path
      d="M42.6543 76.4362C26.9746 76.4362 14.2181 63.6798 14.2181 48C14.2181 32.3203 26.9746 19.5638 42.6543 19.5638C52.772 19.5638 62.2081 25.0085 67.2798 33.773L54.9733 40.8943C52.435 36.5073 47.7143 33.7819 42.6543 33.7819C34.8143 33.7819 28.4362 40.16 28.4362 48C28.4362 55.8398 34.8143 62.2181 42.6543 62.2181C47.7148 62.2181 52.4355 59.4927 54.9742 55.1049L67.2806 62.2259C62.2089 70.9912 52.7726 76.4362 42.6543 76.4362Z"
      fill="white" />
    <path
      d="M71.0904 46.4201H67.9307V43.2606H64.7715V46.4201H61.6117V49.5796H64.7715V52.7393H67.9307V49.5796H71.0904V46.4201Z"
      fill="white" />
    <path
      d="M82.9388 46.4201H79.779V43.2606H76.6198V46.4201H73.4601V49.5796H76.6198V52.7393H79.779V49.5796H82.9388V46.4201Z"
      fill="white" />
  </g>
  <defs>
    <clipPath id="clip0_134_848">
      <rect width="85.3085" height="96" fill="white" />
    </clipPath>
  </defs>
</svg>
  