<svg width="86" height="96" viewBox="0 0 86 96" fill="none" xmlns="http://www.w3.org/2000/svg">
  <g clip-path="url(#clip0_134_841)">
    <path
      d="M85.4983 28.1508C85.4976 26.5408 85.1533 25.1181 84.4569 23.8971C83.7729 22.6965 82.7486 21.6901 81.3746 20.8945C70.0329 14.3548 58.6803 7.83513 47.3423 1.28879C44.2856 -0.475875 41.3219 -0.411541 38.2879 1.37846C33.7736 4.04079 11.1719 16.9898 4.43693 20.8908C1.66326 22.4965 0.313594 24.9538 0.312927 28.1478C0.308594 41.2995 0.312927 54.4508 0.308594 67.6028C0.308594 69.1775 0.638927 70.5725 1.30459 71.7751C1.98893 73.0121 3.02759 74.0461 4.43326 74.8598C11.1686 78.7608 33.7733 91.7088 38.2866 94.3718C41.3219 96.1628 44.2856 96.2268 47.3433 94.4615C58.6816 87.9148 70.0349 81.3955 81.3783 74.8558C82.7839 74.0425 83.8226 73.0078 84.5069 71.7718C85.1716 70.5691 85.5026 69.1741 85.5026 67.5991C85.5026 67.5991 85.5026 41.3028 85.4983 28.1508Z"
      fill="#A179DC" />
    <path
      d="M43.0359 47.7471L1.30457 71.7751C1.9889 73.0121 3.02757 74.0461 4.43323 74.8597C11.1686 78.7607 33.7732 91.7087 38.2866 94.3717C41.3219 96.1627 44.2856 96.2267 47.3432 94.4614C58.6816 87.9147 70.0349 81.3954 81.3782 74.8557C82.7839 74.0424 83.8226 73.0077 84.5069 71.7717L43.0359 47.7471Z"
      fill="#280068" />
    <path
      d="M85.4982 28.1508C85.4976 26.5408 85.1532 25.1181 84.4569 23.8971L43.0359 47.7471L84.5069 71.7718C85.1716 70.5691 85.5019 69.1741 85.5026 67.5991C85.5026 67.5991 85.5026 41.3028 85.4982 28.1508Z"
      fill="#390091" />
    <path
      d="M67.606 38.7646V43.2559H72.0972V38.7646H74.3428V43.2559H78.8341V45.5015H74.3428V49.9927H78.8341V52.2383H74.3428V56.7296H72.0972V52.2383H67.606V56.7296H65.3604V52.2383H60.8691V49.9927H65.3604V45.5015H60.8691V43.2559H65.3604V38.7646H67.606ZM72.0972 45.5015H67.606V49.9927H72.0972V45.5015Z"
      fill="white" />
    <path
      d="M43.1275 16.2086C54.8421 16.2086 65.0699 22.5707 70.5481 32.0273L70.4947 31.9363L56.7118 39.8724C53.9963 35.2745 49.018 32.1717 43.3074 32.1078L43.1275 32.1068C34.419 32.1068 27.3589 39.1666 27.3589 47.8751C27.3589 50.723 28.1181 53.3925 29.4385 55.6983C32.1565 60.4433 37.2661 63.6438 43.1275 63.6438C49.0251 63.6438 54.1638 60.4027 56.8681 55.6068L56.8024 55.7219L70.5645 63.6946C65.1464 73.0711 55.0587 79.4136 43.4803 79.54L43.1275 79.5419C31.376 79.5419 21.1191 73.1407 15.6547 63.6341C12.987 58.9931 11.4607 53.6126 11.4607 47.8751C11.4607 30.3864 25.6381 16.2086 43.1275 16.2086Z"
      fill="white" />
  </g>
  <defs>
    <clipPath id="clip0_134_841">
      <rect width="85.3333" height="96" fill="white" transform="translate(0.308594)" />
    </clipPath>
  </defs>
</svg>
  