<svg width="32" height="32" viewBox="0 0 32 32" fill="none" xmlns="http://www.w3.org/2000/svg">
<path d="M5.33317 26.6666C4.59984 26.6666 3.97184 26.4053 3.44917 25.8826C2.92651 25.36 2.66562 24.7324 2.66651 24V7.99998C2.66651 7.26665 2.92784 6.63865 3.45051 6.11598C3.97317 5.59332 4.60073 5.33243 5.33317 5.33332H26.6665C27.3998 5.33332 28.0278 5.59465 28.5505 6.11731C29.0732 6.63998 29.3341 7.26754 29.3332 7.99998V24C29.3332 24.7333 29.0718 25.3613 28.5492 25.884C28.0265 26.4066 27.399 26.6675 26.6665 26.6666H5.33317ZM15.9998 17.3333L26.6665 10.6666V7.99998L15.9998 14.6666L5.33317 7.99998V10.6666L15.9998 17.3333Z" fill="white"/>
</svg>
