<svg width="96" height="96" viewBox="0 0 96 96" fill="none" xmlns="http://www.w3.org/2000/svg">
  <g clip-path="url(#clip0_134_807)">
    <path
      d="M47.5937 0.0270996C23.2817 0.0270996 24.7997 10.5702 24.7997 10.5702L24.8267 21.4932H48.0272V24.7726H15.6118C15.6118 24.7726 0.0545654 23.0082 0.0545654 47.5388C0.0545654 72.0702 13.6333 71.2002 13.6333 71.2002H21.7371V59.8167C21.7371 59.8167 21.3002 46.238 35.0991 46.238H58.1098C58.1098 46.238 71.0379 46.4469 71.0379 33.7434V12.7389C71.0379 12.7389 73.0014 0.0270996 47.5937 0.0270996ZM34.8009 7.3726C35.3492 7.37211 35.8921 7.47973 36.3988 7.6893C36.9054 7.89888 37.3657 8.2063 37.7533 8.59396C38.141 8.98163 38.4484 9.44194 38.658 9.94854C38.8676 10.4551 38.9752 10.9981 38.9747 11.5463C38.9752 12.0946 38.8676 12.6376 38.658 13.1442C38.4484 13.6508 38.141 14.1111 37.7533 14.4987C37.3657 14.8864 36.9054 15.1938 36.3988 15.4034C35.8921 15.613 35.3492 15.7206 34.8009 15.7201C34.2527 15.7206 33.7097 15.613 33.2031 15.4034C32.6965 15.1938 32.2362 14.8864 31.8486 14.4987C31.4609 14.1111 31.1535 13.6508 30.9439 13.1442C30.7343 12.6376 30.6267 12.0946 30.6272 11.5463C30.6267 10.9981 30.7343 10.4551 30.9439 9.94854C31.1535 9.44194 31.4609 8.98163 31.8486 8.59396C32.2362 8.2063 32.6965 7.89888 33.2031 7.6893C33.7097 7.47973 34.2527 7.37211 34.8009 7.3726Z"
      fill="url(#paint0_linear_134_807)" />
    <path
      d="M48.2839 95.2973C72.5959 95.2973 71.0779 84.7542 71.0779 84.7542L71.0509 73.8316H47.85V70.5522H80.2654C80.2654 70.5522 95.8226 72.3166 95.8226 47.7852C95.8226 23.2542 82.2439 24.1242 82.2439 24.1242H74.1401V35.5073C74.1401 35.5073 74.577 49.0861 60.7781 49.0861H37.7674C37.7674 49.0861 24.8392 48.8772 24.8392 61.5811V82.5859C24.8392 82.5859 22.8761 95.2973 48.2835 95.2973H48.2839ZM61.0766 87.9525C60.5284 87.953 59.9854 87.8454 59.4788 87.6358C58.9722 87.4263 58.5119 87.1189 58.1242 86.7312C57.7366 86.3435 57.4292 85.8832 57.2196 85.3766C57.01 84.87 56.9024 84.327 56.9029 83.7788C56.9023 83.2305 57.0099 82.6875 57.2195 82.1809C57.429 81.6742 57.7364 81.2139 58.1241 80.8262C58.5118 80.4385 58.9721 80.131 59.4787 79.9214C59.9854 79.7118 60.5284 79.6042 61.0766 79.6047C61.6249 79.6042 62.1678 79.7118 62.6744 79.9214C63.181 80.131 63.6413 80.4384 64.029 80.826C64.4167 81.2137 64.7241 81.674 64.9337 82.1806C65.1433 82.6872 65.2509 83.2302 65.2504 83.7784C65.2509 84.3267 65.1433 84.8696 64.9337 85.3762C64.7241 85.8828 64.4167 86.3431 64.029 86.7308C63.6413 87.1185 63.181 87.4259 62.6744 87.6355C62.1678 87.845 61.6249 87.953 61.0766 87.9525Z"
      fill="url(#paint1_linear_134_807)" />
  </g>
  <defs>
    <linearGradient id="paint0_linear_134_807" x1="920.384" y1="856.926" x2="5666.37" y2="5555.56"
      gradientUnits="userSpaceOnUse">
      <stop stop-color="#387EB8" />
      <stop offset="1" stop-color="#366994" />
    </linearGradient>
    <linearGradient id="paint1_linear_134_807" x1="1383.25" y1="1488.87" x2="6479.89" y2="6306.89"
      gradientUnits="userSpaceOnUse">
      <stop stop-color="#FFE052" />
      <stop offset="1" stop-color="#FFC331" />
    </linearGradient>
    <clipPath id="clip0_134_807">
      <rect width="96" height="95.625" fill="white" />
    </clipPath>
  </defs>
</svg>