<svg width="97" height="96" viewBox="0 0 97 96" fill="none" xmlns="http://www.w3.org/2000/svg">
  <path
    d="M89.6901 18.438L50.2641 88.938C50.079 89.2696 49.809 89.546 49.4819 89.7389C49.1548 89.9318 48.7823 90.0343 48.4025 90.0358C48.0228 90.0373 47.6494 89.9378 47.3208 89.7476C46.9921 89.5573 46.7199 89.2831 46.5321 88.953L6.32612 18.444C6.12398 18.0902 6.02694 17.6861 6.04639 17.2792C6.06583 16.8722 6.20096 16.4792 6.43591 16.1463C6.67086 15.8134 6.99589 15.5544 7.37285 15.3997C7.74981 15.245 8.16307 15.2011 8.56412 15.273L48.0321 22.329C48.2831 22.3742 48.5402 22.3742 48.7911 22.329L87.4341 15.285C87.8337 15.212 88.2457 15.2541 88.6222 15.4064C88.9987 15.5586 89.3241 15.8148 89.5606 16.1449C89.7971 16.4751 89.9348 16.8657 89.9578 17.2712C89.9807 17.6767 89.8879 18.0833 89.6901 18.438Z"
    fill="url(#paint0_linear_134_703)" />
  <path
    d="M66.8303 6.02101L37.6583 11.736C37.4248 11.7816 37.2131 11.9037 37.0566 12.0829C36.9002 12.2622 36.8079 12.4885 36.7943 12.726L35.0003 43.038C34.9904 43.2043 35.0194 43.3706 35.0851 43.5237C35.1507 43.6768 35.2512 43.8125 35.3784 43.92C35.5057 44.0275 35.6563 44.1038 35.8183 44.1428C35.9802 44.1819 36.149 44.1826 36.3113 44.145L44.4323 42.27C44.6073 42.2296 44.7896 42.2338 44.9625 42.2823C45.1354 42.3307 45.2933 42.4219 45.4218 42.5473C45.5502 42.6728 45.6451 42.8286 45.6976 43.0003C45.7501 43.172 45.7586 43.3542 45.7223 43.53L43.3103 55.347C43.2731 55.5289 43.2838 55.7174 43.3414 55.8939C43.399 56.0705 43.5015 56.229 43.6389 56.3539C43.7762 56.4789 43.9437 56.566 44.1249 56.6067C44.3061 56.6473 44.4947 56.6402 44.6723 56.586L49.6883 55.062C49.8662 55.0076 50.0552 55.0004 50.2367 55.0412C50.4182 55.082 50.5859 55.1694 50.7234 55.2948C50.8608 55.4201 50.9632 55.5791 51.0206 55.7561C51.0779 55.933 51.0882 56.1219 51.0503 56.304L47.2133 74.865C46.9733 76.026 48.5183 76.659 49.1633 75.666L49.5923 75L73.3673 27.555C73.4566 27.3762 73.494 27.1761 73.4755 26.9771C73.4569 26.7782 73.383 26.5884 73.2623 26.4292C73.1415 26.2701 72.9786 26.1479 72.792 26.0764C72.6054 26.005 72.4025 25.9872 72.2063 26.025L63.8453 27.636C63.6653 27.6705 63.4795 27.6581 63.3057 27.6003C63.1318 27.5424 62.9757 27.4409 62.8523 27.3054C62.7289 27.17 62.6423 27.0051 62.6008 26.8266C62.5593 26.6482 62.5643 26.462 62.6153 26.286L68.0693 7.36801C68.1207 7.19144 68.1258 7.00461 68.084 6.82552C68.0423 6.64642 67.9551 6.48109 67.8309 6.34546C67.7067 6.20982 67.5497 6.10845 67.375 6.05109C67.2003 5.99374 67.0137 5.98235 66.8333 6.01801L66.8303 6.02101Z"
    fill="url(#paint1_linear_134_703)" />
  <defs>
    <linearGradient id="paint0_linear_134_703" x1="5.34368" y1="12.7526" x2="54.4092" y2="79.3875"
      gradientUnits="userSpaceOnUse">
      <stop stop-color="#41D1FF" />
      <stop offset="1" stop-color="#BD34FE" />
    </linearGradient>
    <linearGradient id="paint1_linear_134_703" x1="45.7642" y1="7.57135" x2="54.64" y2="68.4578"
      gradientUnits="userSpaceOnUse">
      <stop stop-color="#FFEA83" />
      <stop offset="0.083" stop-color="#FFDD35" />
      <stop offset="1" stop-color="#FFA800" />
    </linearGradient>
  </defs>
</svg>
  