<svg width="632" height="416" viewBox="0 0 632 416" fill="none" xmlns="http://www.w3.org/2000/svg">
  <g clip-path="url(#clip0_182_51)">
    <mask id="mask0_182_51" style="mask-type:alpha" maskUnits="userSpaceOnUse" x="50" y="50"
      width="100" height="100">
      <rect x="50" y="50" width="100" height="100" fill="#D9D9D9" />
    </mask>
    <g mask="url(#mask0_182_51)">
      <path
        d="M116.667 85L79.5835 122.083C78.8196 122.847 77.8474 123.229 76.6669 123.229C75.4863 123.229 74.5141 122.847 73.7502 122.083C72.9863 121.319 72.6044 120.347 72.6044 119.167C72.6044 117.986 72.9863 117.014 73.7502 116.25L110.834 79.1667H79.1669C77.9863 79.1667 76.9967 78.7674 76.1981 77.9688C75.3995 77.1702 75.0002 76.1806 75.0002 75C75.0002 73.8195 75.3995 72.8299 76.1981 72.0313C76.9967 71.2327 77.9863 70.8334 79.1669 70.8334H120.834C122.014 70.8334 123.004 71.2327 123.802 72.0313C124.601 72.8299 125 73.8195 125 75V116.667C125 117.847 124.601 118.837 123.802 119.635C123.004 120.434 122.014 120.833 120.834 120.833C119.653 120.833 118.663 120.434 117.865 119.635C117.066 118.837 116.667 117.847 116.667 116.667V85Z"
        fill="white" />
    </g>
    <path
      d="M282.666 133.333C280.374 133.333 278.412 132.516 276.779 130.883C275.145 129.25 274.33 127.289 274.333 125V74.9998C274.333 72.7082 275.149 70.7457 276.783 69.1123C278.416 67.479 280.377 66.6637 282.666 66.6665H349.333C351.624 66.6665 353.587 67.4832 355.22 69.1165C356.854 70.7498 357.669 72.7109 357.666 74.9998V125C357.666 127.291 356.849 129.254 355.216 130.887C353.583 132.521 351.622 133.336 349.333 133.333H282.666ZM315.999 104.166L349.333 83.333V74.9998L315.999 95.833L282.666 74.9998V83.333L315.999 104.166Z"
      fill="white" />
    <mask id="mask1_182_51" style="mask-type:alpha" maskUnits="userSpaceOnUse" x="482" y="50"
      width="100" height="100">
      <rect x="482" y="50" width="100" height="100" fill="#D9D9D9" />
    </mask>
    <g mask="url(#mask1_182_51)">
      <path
        d="M534.5 100L518.25 83.7502C517.486 82.9863 517.104 82.0141 517.104 80.8335C517.104 79.6529 517.486 78.6807 518.25 77.9168C519.014 77.1529 519.986 76.771 521.167 76.771C522.347 76.771 523.32 77.1529 524.084 77.9168L543.25 97.0835C543.667 97.5002 543.962 97.9516 544.136 98.4377C544.309 98.9238 544.396 99.4446 544.396 100C544.396 100.556 544.309 101.077 544.136 101.563C543.962 102.049 543.667 102.5 543.25 102.917L524.084 122.083C523.32 122.847 522.347 123.229 521.167 123.229C519.986 123.229 519.014 122.847 518.25 122.083C517.486 121.32 517.104 120.347 517.104 119.167C517.104 117.986 517.486 117.014 518.25 116.25L534.5 100Z"
        fill="white" />
    </g>
    <mask id="mask2_182_51" style="mask-type:alpha" maskUnits="userSpaceOnUse" x="50" y="266"
      width="100" height="100">
      <rect x="50" y="266" width="100" height="100" fill="#D9D9D9" />
    </mask>
    <g mask="url(#mask2_182_51)">
      <path
        d="M95.8333 346.938V318.396L70.8333 303.917V332.458L95.8333 346.938ZM104.167 346.938L129.167 332.458V303.917L104.167 318.396V346.938ZM100 311.208L124.688 296.938L100 282.667L75.3125 296.938L100 311.208ZM66.6667 339.75C65.3472 338.986 64.3229 337.979 63.5938 336.729C62.8646 335.479 62.5 334.09 62.5 332.563V299.438C62.5 297.91 62.8646 296.521 63.5938 295.271C64.3229 294.021 65.3472 293.014 66.6667 292.25L95.8333 275.479C97.1528 274.715 98.5417 274.333 100 274.333C101.458 274.333 102.847 274.715 104.167 275.479L133.333 292.25C134.653 293.014 135.677 294.021 136.406 295.271C137.135 296.521 137.5 297.91 137.5 299.438V332.563C137.5 334.09 137.135 335.479 136.406 336.729C135.677 337.979 134.653 338.986 133.333 339.75L104.167 356.521C102.847 357.285 101.458 357.667 100 357.667C98.5417 357.667 97.1528 357.285 95.8333 356.521L66.6667 339.75Z"
        fill="white" />
    </g>
    <mask id="mask3_182_51" style="mask-type:alpha" maskUnits="userSpaceOnUse" x="266" y="266"
      width="100" height="100">
      <rect x="266" y="266" width="100" height="100" fill="#D9D9D9" />
    </mask>
    <g mask="url(#mask3_182_51)">
      <path
        d="M286.104 316.104L302.25 332.25C303.014 333.013 303.396 333.986 303.396 335.166C303.396 336.347 303.014 337.319 302.25 338.083C301.486 338.847 300.514 339.229 299.334 339.229C298.153 339.229 297.181 338.847 296.417 338.083L277.25 318.916C276.834 318.5 276.538 318.048 276.365 317.562C276.191 317.076 276.104 316.555 276.104 316C276.104 315.444 276.191 314.923 276.365 314.437C276.538 313.951 276.834 313.5 277.25 313.083L296.417 293.916C297.25 293.083 298.24 292.666 299.386 292.666C300.531 292.666 301.521 293.083 302.354 293.916C303.188 294.75 303.604 295.739 303.604 296.885C303.604 298.031 303.188 299.02 302.354 299.854L286.104 316.104ZM345.896 315.895L329.75 299.75C328.986 298.986 328.604 298.013 328.604 296.833C328.604 295.652 328.986 294.68 329.75 293.916C330.514 293.152 331.486 292.77 332.667 292.77C333.847 292.77 334.82 293.152 335.584 293.916L354.75 313.083C355.167 313.5 355.462 313.951 355.636 314.437C355.809 314.923 355.896 315.444 355.896 316C355.896 316.555 355.809 317.076 355.636 317.562C355.462 318.048 355.167 318.5 354.75 318.916L335.584 338.083C334.75 338.916 333.778 339.316 332.667 339.281C331.556 339.246 330.584 338.812 329.75 337.979C328.917 337.145 328.5 336.156 328.5 335.01C328.5 333.864 328.917 332.875 329.75 332.041L345.896 315.895Z"
        fill="white" />
    </g>
    <mask id="mask4_182_51" style="mask-type:alpha" maskUnits="userSpaceOnUse" x="482" y="266"
      width="100" height="100">
      <rect x="482" y="266" width="100" height="100" fill="#D9D9D9" />
    </mask>
    <g mask="url(#mask4_182_51)">
      <path
        d="M502.833 353.5C500.542 353.5 498.58 352.684 496.948 351.052C495.316 349.42 494.5 347.458 494.5 345.167V286.833C494.5 284.542 495.316 282.58 496.948 280.948C498.58 279.316 500.542 278.5 502.833 278.5H527.833C529.014 278.5 530.003 278.899 530.802 279.698C531.601 280.497 532 281.486 532 282.667C532 283.847 531.601 284.837 530.802 285.635C530.003 286.434 529.014 286.833 527.833 286.833H502.833V345.167H561.167V320.167C561.167 318.986 561.566 317.997 562.365 317.198C563.163 316.399 564.153 316 565.333 316C566.514 316 567.503 316.399 568.302 317.198C569.101 317.997 569.5 318.986 569.5 320.167V345.167C569.5 347.458 568.684 349.42 567.052 351.052C565.42 352.684 563.458 353.5 561.167 353.5H502.833ZM561.167 292.667L525.333 328.5C524.569 329.264 523.597 329.646 522.417 329.646C521.236 329.646 520.264 329.264 519.5 328.5C518.736 327.736 518.354 326.764 518.354 325.583C518.354 324.403 518.736 323.431 519.5 322.667L555.333 286.833H544.5C543.319 286.833 542.33 286.434 541.531 285.635C540.733 284.837 540.333 283.847 540.333 282.667C540.333 281.486 540.733 280.497 541.531 279.698C542.33 278.899 543.319 278.5 544.5 278.5H569.5V303.5C569.5 304.681 569.101 305.67 568.302 306.469C567.503 307.267 566.514 307.667 565.333 307.667C564.153 307.667 563.163 307.267 562.365 306.469C561.566 305.67 561.167 304.681 561.167 303.5V292.667Z"
        fill="white" />
    </g>
  </g>
  <defs>
    <clipPath id="clip0_182_51">
      <rect width="632" height="416" rx="16" fill="white" />
    </clipPath>
  </defs>
</svg>
  