<svg width="64" height="64" viewBox="0 0 64 64" fill="none" xmlns="http://www.w3.org/2000/svg">
  <g clip-path="url(#clip0_46_101)">
    <mask id="mask0_46_101" style="mask-type:luminance" maskUnits="userSpaceOnUse" x="0" y="0"
      width="64" height="64">
      <path d="M64 0H0V64H64V0Z" fill="white" />
    </mask>
    <g mask="url(#mask0_46_101)">
      <path
        d="M8.54397 47.6165C7.61353 47.0812 7.04001 46.0896 7.04001 45.0162V20.3806C7.04001 19.6119 7.87113 19.1307 8.53779 19.5133L29.9524 31.804C30.8843 32.3389 31.459 33.3314 31.459 34.4059V59.071C31.459 59.8401 30.627 60.3213 29.9603 59.9378L8.54397 47.6165Z"
        fill="#754BBB" />
      <path
        d="M34.8434 59.9166C34.1767 60.3077 33.3374 59.8269 33.3374 59.0541V34.4207C33.3374 33.3563 33.9014 32.3716 34.8195 31.8331L55.7808 19.5371C56.4475 19.146 57.2868 19.6267 57.2868 20.3996V45.033C57.2868 46.0974 56.7228 47.0821 55.8047 47.6206L34.8434 59.9166Z"
        fill="#6637B3" />
      <path
        d="M33.8716 4.03073C32.957 3.51508 31.8394 3.51508 30.9248 4.03073L9.50353 16.1084C8.82954 16.4884 8.82393 17.457 9.49349 17.8448L30.8947 30.2395C31.8247 30.7781 32.9718 30.7781 33.9017 30.2395L55.303 17.8448C55.9725 17.457 55.9669 16.4884 55.2929 16.1084L33.8716 4.03073Z"
        fill="#8C69C6" />
    </g>
  </g>
  <defs>
    <clipPath id="clip0_46_101">
      <rect width="64" height="64" fill="white" />
    </clipPath>
  </defs>
</svg>